# xmcd
#
# Track frame offsets:
# 150
# 21373
# 35918
# 57073
# 73198
# 95278
# 115198
# 128848
# 146773
# 157798
# 180823
# 197773
# 217798
# 234468
# 261898
#
# Disc length: 3707 seconds
#
# Revision: 1
# Processed by: cddbd v1.5.2PL0 Copyright (c) Steve Scherf et al.
# Submitted via: CedeCatalogueitor 2.6.0.6 http://personales.ya.com/cdcatalogueitor
#
DISCID=cb0e790f
DTITLE=Blues Motel - Mientras Las Guitarras Suenen
DYEAR=1900
DGENRE=Rock Nacional
TTITLE0=Mientras Vos Caes
TTITLE1=Lo Que Barre Con Tu Alma
TTITLE2=No Robes Mas
TTITLE3=Nunca Tuve Que Buscarte
TTITLE4=Ese Chico Llora Igual
TTITLE5=Cuando Todo Empezo A Caer
TTITLE6=Es Hora De Volverlo A Hacer
TTITLE7=Angel
TTITLE8=Saben Donde Vas
TTITLE9=No Me Puedo Quedar
TTITLE10=En El Lago
TTITLE11=Aun Queda
TTITLE12=Nunca Parare
TTITLE13=Te Trajo El Viento
TTITLE14=Hasta Volver A Tocar
EXTD=
EXTT0=
EXTT1=
EXTT2=
EXTT3=
EXTT4=
EXTT5=
EXTT6=
EXTT7=
EXTT8=
EXTT9=
EXTT10=
EXTT11=
EXTT12=
EXTT13=
EXTT14=
PLAYORDER=
